<svg xmlns="http://www.w3.org/2000/svg" width="24" height="24" viewBox="0 0 24 24">
  <g id="Group_2" data-name="Group 2" transform="translate(-0.012)">
    <g id="Rectangle_4" data-name="Rectangle 4" transform="translate(0.012)" fill="#0055c4" stroke="#707070" stroke-width="1" opacity="0">
      <rect width="24" height="24" stroke="none"/>
      <rect x="0.5" y="0.5" width="23" height="23" fill="none"/>
    </g>
    <path id="megaphone" d="M15.352,0a.9.9,0,0,0-.9.9c0,2.663-2.333,3.612-4.515,3.612H3.612A3.612,3.612,0,0,0,0,8.128V9.934a3.593,3.593,0,0,0,1.367,2.808l3.226,7.2A2.92,2.92,0,0,0,7.26,21.674a2.693,2.693,0,0,0,2.456-3.793L7.729,13.546h2.2c2.183,0,4.515.949,4.515,3.612a.9.9,0,0,0,1.806,0V.9a.9.9,0,0,0-.9-.9ZM8.071,18.62a.888.888,0,0,1-.811,1.247A1.113,1.113,0,0,1,6.243,19.2L3.707,13.546H5.743Zm6.378-5.436A6.974,6.974,0,0,0,9.934,11.74H3.612A1.806,1.806,0,0,1,1.806,9.934V8.128A1.806,1.806,0,0,1,3.612,6.321H9.934a6.974,6.974,0,0,0,4.515-1.44Zm7.134.769a.9.9,0,0,1-1.212.4l-1.806-.9a.9.9,0,1,1,.807-1.616l1.806.9a.9.9,0,0,1,.4,1.207ZM18.161,5.827a.9.9,0,0,1,.4-1.212l1.806-.9a.9.9,0,0,1,.807,1.616l-1.806.9A.9.9,0,0,1,18.161,5.827Zm-.1,3.2a.9.9,0,0,1,.9-.9H20.77a.9.9,0,1,1,0,1.806H18.964A.9.9,0,0,1,18.061,9.031Z" transform="translate(1.204 1.163)" fill="#0055c4"/>
  </g>
</svg>
