<svg id="Group_1" data-name="Group 1" xmlns="http://www.w3.org/2000/svg" width="24" height="24" viewBox="0 0 24 24">
  <rect id="Rectangle_3" data-name="Rectangle 3" width="24" height="24" fill="#0055c4" opacity="0"/>
  <path id="home" d="M18.175,7.133,12.212,1.17a3.937,3.937,0,0,0-5.559,0L.691,7.133A2.341,2.341,0,0,0,0,8.8v7.717a2.358,2.358,0,0,0,2.358,2.358H16.507a2.358,2.358,0,0,0,2.358-2.358V8.8A2.341,2.341,0,0,0,18.175,7.133ZM11.791,17.3H7.075V14.211a2.358,2.358,0,1,1,4.716,0Zm5.5-.786a.786.786,0,0,1-.786.786H13.363V14.211a3.93,3.93,0,1,0-7.861,0V17.3H2.358a.786.786,0,0,1-.786-.786V8.8a.792.792,0,0,1,.23-.556L7.765,2.284a2.365,2.365,0,0,1,3.336,0l5.962,5.963a.792.792,0,0,1,.23.553Z" transform="translate(2.825 2.979)" fill="#0055c4"/>
</svg>
