<svg xmlns="http://www.w3.org/2000/svg" width="21.643" height="21.643" viewBox="0 0 21.643 21.643">
  <g id="Group_475" data-name="Group 475" transform="translate(0 0)">
    <g id="gift" transform="translate(0 0)">
      <g id="Group_468" data-name="Group 468">
        <path id="Path_153" data-name="Path 153" d="M19.74,5.072H17.16A3.169,3.169,0,0,0,14.626,0a2.846,2.846,0,0,0-2.444,1.187,12.31,12.31,0,0,0-1.361,2.819A12.309,12.309,0,0,0,9.461,1.187,2.846,2.846,0,0,0,7.017,0,3.169,3.169,0,0,0,4.482,5.072H1.9A1.9,1.9,0,0,0,0,6.975V8.243a1.905,1.905,0,0,0,1.268,1.793v9.7a1.9,1.9,0,0,0,1.9,1.9h15.3a1.9,1.9,0,0,0,1.9-1.9v-9.7a1.905,1.905,0,0,0,1.268-1.793V6.975A1.9,1.9,0,0,0,19.74,5.072Zm-7.755-.561c.971-2.464,1.341-3.244,2.64-3.244a1.9,1.9,0,0,1,0,3.8H11.763C11.841,4.877,11.915,4.69,11.985,4.512ZM7.017,1.268c1.3,0,1.669.78,2.64,3.244.07.178.144.365.222.561H7.017a1.9,1.9,0,0,1,0-3.8ZM8.285,20.374H3.17a.635.635,0,0,1-.634-.634v-9.6H8.285Zm0-11.5H1.9a.635.635,0,0,1-.634-.634V6.975A.635.635,0,0,1,1.9,6.341H8.285Zm3.8,11.5H9.553V6.341h2.536Zm7.017-.634a.635.635,0,0,1-.634.634H13.358V10.145h5.749Zm1.268-11.5a.635.635,0,0,1-.634.634H13.358V6.341H19.74a.635.635,0,0,1,.634.634Z" transform="translate(0 0)" fill="#0055c4"/>
      </g>
    </g>
    <g id="gift-2" data-name="gift" transform="translate(0 5.027)">
      <g id="Group_468-2" data-name="Group 468">
        <path id="Path_153-2" data-name="Path 153" d="M19.74,5.072H17.16c-.056-.075-6.469.059-12.678,0H1.9A1.9,1.9,0,0,0,0,6.975V8.243a1.905,1.905,0,0,0,1.268,1.793v9.7a1.9,1.9,0,0,0,1.9,1.9h15.3a1.9,1.9,0,0,0,1.9-1.9v-9.7a1.905,1.905,0,0,0,1.268-1.793V6.975A1.9,1.9,0,0,0,19.74,5.072Zm-5.115,0C12.381,4.97,15.675,5.072,14.626,5.072Zm-6.341,15.3H3.17a.635.635,0,0,1-.634-.634v-9.6H8.285Zm0-11.5H1.9a.635.635,0,0,1-.634-.634V6.975A.635.635,0,0,1,1.9,6.341H8.285Zm3.8,11.5H9.553V6.341h2.536Zm7.017-.634a.635.635,0,0,1-.634.634H13.358V10.145h5.749Zm1.268-11.5a.635.635,0,0,1-.634.634H13.358V6.341H19.74a.635.635,0,0,1,.634.634Z" transform="translate(0 -5.027)" fill="#2a2a2a"/>
      </g>
    </g>
  </g>
</svg>
